<svg width="20" height="20" viewBox="0 0 20 20" fill="none" xmlns="http://www.w3.org/2000/svg">
<g clip-path="url(#clip0_15502_2321)">
<path fill-rule="evenodd" clip-rule="evenodd" d="M2.28527 10.4992C2.16263 10.3093 2.05967 10.1406 1.97687 10C2.05967 9.85947 2.16263 9.69079 2.28527 9.5009C2.66556 8.91206 3.2285 8.12944 3.95862 7.35065C5.4371 5.7736 7.48276 4.33337 9.99992 4.33337C12.5171 4.33337 14.5627 5.7736 16.0412 7.35065C16.7713 8.12944 17.3343 8.91206 17.7146 9.5009C17.8372 9.69079 17.9402 9.85947 18.023 10C17.9402 10.1406 17.8372 10.3093 17.7146 10.4992C17.3343 11.088 16.7713 11.8706 16.0412 12.6494C14.5627 14.2265 12.5171 15.6667 9.99992 15.6667C7.48276 15.6667 5.4371 14.2265 3.95862 12.6494C3.2285 11.8706 2.66556 11.088 2.28527 10.4992ZM19.1666 10C20.061 9.55283 20.0608 9.5525 20.0607 9.55214L19.1666 10ZM20.0607 9.55214C20.2014 9.83367 20.2018 10.1657 20.061 10.4473L19.1666 10C20.061 10.4473 20.0604 10.4484 20.0602 10.4488L20.0592 10.4509L20.0561 10.457L20.0462 10.4764C20.038 10.4924 20.0264 10.5146 20.0116 10.5426C19.982 10.5986 19.9392 10.6777 19.8835 10.7768C19.7722 10.9746 19.6088 11.2527 19.3946 11.5842C18.9676 12.2454 18.3327 13.1294 17.5003 14.0173C15.8538 15.7736 13.3161 17.6667 9.99992 17.6667C6.68374 17.6667 4.14607 15.7736 2.49955 14.0173C1.66717 13.1294 1.03219 12.2454 0.605192 11.5842C0.391071 11.2527 0.227612 10.9746 0.116299 10.7768C0.0606048 10.6777 0.0178526 10.5986 -0.0117665 10.5426C-0.0265793 10.5146 -0.0381179 10.4924 -0.0463582 10.4764L-0.0562457 10.457L-0.0593311 10.4509L-0.0604085 10.4488L-0.0611752 10.4473L0.832147 10.0006C-0.0551356 10.4442 -0.0613106 10.4469 -0.0611785 10.4472L-0.0611752 10.4473C-0.201939 10.1657 -0.201939 9.83435 -0.0611752 9.55283L0.833252 10C-0.0611752 9.55283 -0.0605872 9.55165 -0.0604085 9.5513L-0.0593311 9.54915L-0.0562457 9.54305L-0.0463582 9.52369C-0.0381179 9.50766 -0.0265793 9.48544 -0.0117665 9.45745C0.0178526 9.40148 0.0606048 9.32233 0.116299 9.22332C0.227612 9.02543 0.391071 8.74739 0.605192 8.41585C1.03219 7.75469 1.66717 6.87064 2.49955 5.98277C4.14607 4.22648 6.68374 2.33337 9.99992 2.33337C13.3161 2.33337 15.8538 4.22648 17.5003 5.98277C18.3327 6.87064 18.9676 7.75469 19.3946 8.41585C19.6088 8.74739 19.7722 9.02543 19.8835 9.22332C19.9392 9.32233 19.982 9.40148 20.0116 9.45745C20.0264 9.48544 20.038 9.50766 20.0462 9.52369L20.0561 9.54305L20.0592 9.54915L20.0607 9.55214ZM8.5 10C8.5 9.17157 9.17157 8.5 10 8.5C10.8284 8.5 11.5 9.17157 11.5 10C11.5 10.8284 10.8284 11.5 10 11.5C9.17157 11.5 8.5 10.8284 8.5 10ZM10 6.5C8.067 6.5 6.5 8.067 6.5 10C6.5 11.933 8.067 13.5 10 13.5C11.933 13.5 13.5 11.933 13.5 10C13.5 8.067 11.933 6.5 10 6.5Z" fill="#A0A3BD"/>
</g>
<defs>
<clipPath id="clip0_15502_2321">
<rect width="20" height="20" fill="white"/>
</clipPath>
</defs>
</svg>
