<svg width="85" height="33" viewBox="0 0 85 33" fill="none" xmlns="http://www.w3.org/2000/svg">
<path d="M9.41523 26.258H5.75161V11.3533H0.230576V7.62382H14.9235V11.3533H9.41523V26.258ZM20.6239 8.55943C20.6239 8.88863 20.5599 9.19617 20.4317 9.48204C20.3122 9.76794 20.1457 10.0192 19.9321 10.2357C19.7186 10.4437 19.4667 10.6126 19.1764 10.7425C18.8945 10.8638 18.5914 10.9244 18.2668 10.9244C17.9423 10.9244 17.6349 10.8638 17.3445 10.7425C17.0627 10.6126 16.8151 10.4437 16.6016 10.2357C16.3966 10.0192 16.2301 9.76794 16.102 9.48204C15.9824 9.19617 15.9226 8.88863 15.9226 8.55943C15.9226 8.2389 15.9824 7.93569 16.102 7.64982C16.2301 7.35526 16.3966 7.10404 16.6016 6.89612C16.8151 6.67954 17.0627 6.51062 17.3445 6.38934C17.6349 6.2594 17.9423 6.19443 18.2668 6.19443C18.5914 6.19443 18.8945 6.2594 19.1764 6.38934C19.4667 6.51062 19.7186 6.67954 19.9321 6.89612C20.1457 7.10404 20.3122 7.35526 20.4317 7.64982C20.5599 7.93569 20.6239 8.2389 20.6239 8.55943ZM20.0219 26.258H16.4991V12.3409H20.0219V26.258ZM34.6891 15.1087L32.127 17.7206C31.999 17.3568 31.8239 17.0319 31.6018 16.746C31.3799 16.4515 31.128 16.2046 30.8461 16.0053C30.5729 15.8061 30.274 15.6545 29.9494 15.5505C29.6249 15.4466 29.2918 15.3946 28.9502 15.3946C28.472 15.3946 28.0194 15.4942 27.5925 15.6935C27.1739 15.8927 26.8067 16.1743 26.4908 16.5381C26.1833 16.8933 25.9399 17.3178 25.7606 17.8116C25.5813 18.3054 25.4916 18.8511 25.4916 19.4489C25.4916 19.9339 25.5813 20.3888 25.7606 20.8134C25.9399 21.2378 26.1833 21.6104 26.4908 21.9308C26.8067 22.2514 27.1739 22.5026 27.5925 22.6845C28.0194 22.8665 28.472 22.9573 28.9502 22.9573C29.2918 22.9573 29.6206 22.9098 29.9366 22.8145C30.2527 22.7192 30.5472 22.5849 30.8205 22.4116C31.1023 22.2297 31.35 22.0131 31.5635 21.7619C31.7854 21.502 31.9649 21.2161 32.1015 20.9042L34.6634 23.5162C34.3389 23.9841 33.9631 24.4042 33.5362 24.7766C33.1176 25.1492 32.6608 25.4653 32.1655 25.7253C31.6788 25.9852 31.1621 26.1802 30.6156 26.31C30.0776 26.4486 29.5225 26.518 28.9502 26.518C27.9853 26.518 27.0758 26.3359 26.2218 25.9722C25.3763 25.5996 24.6334 25.0929 23.9929 24.4517C23.3608 23.8107 22.8613 23.0613 22.494 22.2037C22.1269 21.346 21.9433 20.4279 21.9433 19.4489C21.9433 18.3833 22.1269 17.3871 22.494 16.4601C22.8613 15.5332 23.3608 14.7275 23.9929 14.0431C24.6334 13.3501 25.3763 12.8043 26.2218 12.4058C27.0758 12.0073 27.9853 11.8081 28.9502 11.8081C29.5225 11.8081 30.0818 11.8817 30.6283 12.029C31.1835 12.1763 31.7087 12.3928 32.204 12.6787C32.7079 12.9559 33.1689 13.2981 33.5874 13.7053C34.0143 14.1125 34.3816 14.5803 34.6891 15.1087ZM39.9283 26.258H36.4055V6.80516H39.9283V19.072L45.1418 12.3668H49.1643L44.6168 18.1624L49.1643 26.258H45.1418L42.3622 21.2032L39.9283 24.4778V26.258ZM54.6725 8.55943C54.6725 8.88863 54.6083 9.19617 54.4803 9.48204C54.3606 9.76794 54.1941 10.0192 53.9808 10.2357C53.7672 10.4437 53.5152 10.6126 53.2249 10.7425C52.9431 10.8638 52.64 10.9244 52.3154 10.9244C51.991 10.9244 51.6835 10.8638 51.3932 10.7425C51.1112 10.6126 50.8636 10.4437 50.6502 10.2357C50.4452 10.0192 50.2787 9.76794 50.1505 9.48204C50.0311 9.19617 49.9713 8.88863 49.9713 8.55943C49.9713 8.2389 50.0311 7.93569 50.1505 7.64982C50.2787 7.35526 50.4452 7.10404 50.6502 6.89612C50.8636 6.67954 51.1112 6.51062 51.3932 6.38934C51.6835 6.2594 51.991 6.19443 52.3154 6.19443C52.64 6.19443 52.9431 6.2594 53.2249 6.38934C53.5152 6.51062 53.7672 6.67954 53.9808 6.89612C54.1941 7.10404 54.3606 7.35526 54.4803 7.64982C54.6083 7.93569 54.6725 8.2389 54.6725 8.55943ZM54.0703 26.258H50.5477V12.3409H54.0703V26.258ZM63.6265 26.258C62.7811 26.258 61.9869 26.0978 61.2439 25.7772C60.5009 25.4481 59.8477 25.0019 59.284 24.4388C58.7289 23.867 58.289 23.2043 57.9646 22.4506C57.6485 21.697 57.4906 20.8913 57.4906 20.0336V15.9014H55.7869V12.3668H57.4906V6.80516H60.9749V12.3668H66.2781V15.9014H60.9749V20.0336C60.9749 20.4062 61.0431 20.757 61.1799 21.0863C61.3165 21.4067 61.5043 21.6883 61.7434 21.9308C61.9827 22.1735 62.2644 22.3683 62.5889 22.5156C62.9135 22.6543 63.2592 22.7235 63.6265 22.7235H66.2781V26.258H63.6265ZM78.9599 26.258H67.5208L73.298 15.9014H67.5208V12.3668H78.9599L73.1827 22.7235H78.9599V26.258Z" fill="#5F2EEA"/>
<path d="M83.5581 15.4791C83.5554 15.4776 83.5524 15.4767 83.5496 15.4753L82.4056 14.8048C82.3344 14.8872 82.2371 14.9419 82.1305 14.9597C82.0239 14.9775 81.9146 14.9573 81.8211 14.9025C81.7275 14.8477 81.6554 14.7616 81.6173 14.659C81.5794 14.5564 81.5774 14.4436 81.6122 14.3398L80.4602 13.6647C80.4292 13.6467 80.3925 13.6418 80.3581 13.6511C80.3236 13.6605 80.294 13.6834 80.2762 13.7147L76.8561 19.7243L76.8559 19.7246C76.847 19.7401 76.8412 19.7573 76.839 19.775C76.8367 19.7929 76.8379 19.8108 76.8424 19.8282C76.847 19.8456 76.8549 19.8618 76.8657 19.8761C76.8764 19.8903 76.8898 19.9022 76.9052 19.9113L78.0576 20.5855C78.129 20.5033 78.2261 20.4487 78.3326 20.4307C78.4391 20.413 78.5484 20.4332 78.642 20.4879C78.7355 20.5427 78.8074 20.6286 78.8455 20.7309C78.8838 20.8333 78.8858 20.946 78.8515 21.0498L79.989 21.7153C79.9936 21.7188 79.9979 21.7225 80.003 21.7256C80.0184 21.7346 80.0352 21.7403 80.0529 21.7428C80.0703 21.7451 80.0882 21.7438 80.1052 21.7392C80.1223 21.7346 80.1382 21.7266 80.1524 21.7156C80.1664 21.7048 80.1781 21.6911 80.187 21.6755V21.6757L83.6073 15.6658C83.6162 15.6502 83.622 15.6331 83.6243 15.6153C83.6265 15.5975 83.6255 15.5794 83.6208 15.5621C83.6162 15.5448 83.6083 15.5285 83.5977 15.5143C83.5868 15.5 83.5734 15.4881 83.5581 15.4791ZM82.5773 15.9457L79.911 20.6305C79.9021 20.6461 79.8904 20.6598 79.8764 20.6706C79.8624 20.6816 79.8463 20.6896 79.8293 20.6942C79.8122 20.6988 79.7944 20.7001 79.7769 20.6978C79.7594 20.6955 79.7424 20.6896 79.727 20.6806L77.9354 19.6311C77.92 19.6221 77.9065 19.6102 77.8959 19.596C77.885 19.5818 77.8771 19.5655 77.8726 19.5483C77.868 19.5309 77.8668 19.5128 77.8691 19.495C77.8715 19.4773 77.8771 19.4601 77.8861 19.4446L80.5524 14.7597C80.5702 14.7284 80.5996 14.7055 80.634 14.6961C80.6685 14.6868 80.7052 14.6917 80.7362 14.7098L82.5282 15.7593C82.5434 15.7682 82.5569 15.7801 82.5675 15.7944C82.5784 15.8086 82.5862 15.8248 82.5908 15.8421C82.5953 15.8594 82.5966 15.8775 82.5943 15.8952C82.5918 15.913 82.5862 15.9301 82.5773 15.9457Z" fill="#5F2EEA"/>
<path d="M81.1411 17.5699L80.5735 17.4628L80.4938 16.9124C80.4925 16.9042 80.4889 16.8967 80.4833 16.8908C80.4777 16.8848 80.4703 16.8808 80.4625 16.8793C80.4544 16.8778 80.4462 16.8788 80.4389 16.8822C80.4315 16.8856 80.4254 16.8912 80.4212 16.8983L80.1461 17.3819L79.5925 17.2775C79.5847 17.2761 79.5764 17.2771 79.5691 17.2805C79.5618 17.2839 79.5556 17.2896 79.5516 17.2967C79.5476 17.3037 79.5458 17.3119 79.5465 17.3201C79.5472 17.3282 79.5504 17.336 79.5556 17.3422L79.9217 17.7763L79.6462 18.2598C79.6422 18.2671 79.6405 18.2752 79.6413 18.2834C79.642 18.2917 79.6454 18.2995 79.6506 18.3058C79.6558 18.312 79.663 18.3162 79.6709 18.3182C79.6788 18.3201 79.687 18.3196 79.6945 18.3166L80.2041 18.1115L80.5795 18.5566C80.5847 18.5627 80.5917 18.5671 80.5996 18.569C80.6073 18.571 80.6155 18.5705 80.623 18.5676C80.6305 18.5648 80.6368 18.5596 80.6414 18.5529C80.6459 18.5462 80.6484 18.5382 80.6482 18.53L80.6384 17.9332L81.153 17.6433C81.1599 17.6392 81.1657 17.6332 81.1692 17.6258C81.1727 17.6185 81.1739 17.6102 81.1727 17.6022C81.1713 17.5941 81.1675 17.5868 81.1619 17.581C81.1563 17.5752 81.1489 17.5713 81.1411 17.5699Z" fill="#5F2EEA"/>
</svg>
