<svg width="147" height="59" viewBox="0 0 147 59" fill="none" xmlns="http://www.w3.org/2000/svg">
<g clip-path="url(#clip0_15389_4589)">
<path d="M24.9623 20.0978C25.4907 20.0978 25.9663 20.1997 26.3891 20.4034C26.8269 20.5902 27.227 20.8024 27.5894 21.04C27.9668 21.2777 28.3216 21.4984 28.6537 21.7021C28.9859 21.8889 29.3256 21.9822 29.6728 21.9822C29.9446 21.9653 30.2541 21.9228 30.6014 21.8549C30.9034 21.787 31.2506 21.6851 31.6431 21.5493C32.0508 21.3965 32.5038 21.1758 33.002 20.8873C32.5038 21.4305 32.0961 21.8889 31.7791 22.2623C31.4771 22.6189 31.243 22.9159 31.077 23.1536C30.8807 23.4252 30.7373 23.6374 30.6467 23.7902C30.5561 23.977 30.4202 24.2571 30.2391 24.6306C30.0729 24.9701 29.8465 25.4285 29.5597 26.0057C29.2728 26.5659 28.9104 27.3044 28.4726 28.2211C28.4726 27.0497 28.3669 26.1415 28.1555 25.4964C27.9593 24.8513 27.7403 24.3589 27.4987 24.0194C27.2119 23.629 26.8873 23.3828 26.5249 23.2809C26.1928 23.23 25.8606 23.2979 25.5284 23.4847C25.1963 23.6544 24.8642 23.9091 24.532 24.2486C24.2149 24.5881 23.9054 24.9956 23.6035 25.4709C23.3166 25.9293 23.0524 26.4131 22.8108 26.9224C22.5844 27.4317 22.3956 27.9495 22.2447 28.4757C22.0937 28.9851 21.9955 29.4604 21.9502 29.9018C21.9049 30.2923 21.8974 30.7506 21.9276 31.2768C21.9578 31.7861 22.0257 32.3124 22.1314 32.8557C22.2371 33.382 22.373 33.8997 22.5391 34.409C22.7051 34.9183 22.909 35.3767 23.1505 35.7841C23.4072 36.1745 23.6941 36.4972 24.0111 36.7518C24.3282 36.9894 24.6905 37.0998 25.0982 37.0829C25.5511 37.0489 25.9965 36.8961 26.4343 36.6244C26.8118 36.4037 27.1968 36.0642 27.5894 35.6059C27.9819 35.1305 28.3216 34.46 28.6085 33.5941L31.9602 34.2817C30.9939 35.6059 30.0503 36.599 29.1293 37.261C28.2234 37.9232 27.4082 38.39 26.6835 38.6616C25.838 38.9672 25.0378 39.1115 24.2829 39.0945C23.3317 38.9757 22.4409 38.6531 21.6105 38.1269C20.7801 37.6006 20.063 36.964 19.4591 36.217C18.8702 35.4531 18.4098 34.6212 18.0776 33.7215C17.7455 32.8217 17.602 31.939 17.6473 31.0732C17.6775 30.4959 17.7832 29.8254 17.9644 29.0614C18.1455 28.2805 18.3871 27.4826 18.6891 26.6677C19.0061 25.8529 19.3836 25.055 19.8214 24.2741C20.2593 23.4931 20.7424 22.7971 21.2708 22.1859C21.7993 21.5578 22.373 21.057 22.992 20.6835C23.6261 20.2931 24.2829 20.0978 24.9623 20.0978ZM32.5088 27.5336L36.6758 27.5845C36.4342 28.6201 36.2531 29.5028 36.1323 30.2328C36.0266 30.9628 35.9587 31.574 35.9285 32.0663C35.8681 32.6265 35.853 33.1019 35.8832 33.4923C35.9285 33.8488 36.004 34.2307 36.1096 34.6382C36.2003 34.9777 36.3361 35.3682 36.5173 35.8096C36.6985 36.251 36.94 36.6924 37.242 37.1338C37.0608 37.0658 36.8645 37.0149 36.6532 36.9809C36.4418 36.947 36.2455 36.9215 36.0643 36.9046C35.853 36.8876 35.6416 36.8876 35.4302 36.9046C35.2189 36.9215 34.9848 36.947 34.7282 36.9809C34.5168 37.0149 34.2601 37.0574 33.9582 37.1083C33.6562 37.1592 33.3391 37.2271 33.007 37.312C33.2335 36.5481 33.4071 35.886 33.5279 35.3258C33.6638 34.7655 33.7619 34.2987 33.8223 33.9252C33.8827 33.4838 33.9204 33.1273 33.9355 32.8557C33.9355 32.5162 33.9355 32.1342 33.9355 31.7098C33.9355 31.2684 33.9355 30.844 33.9355 30.4365C33.9355 30.0291 33.928 29.6726 33.9129 29.367C33.8978 29.0445 33.8676 28.8407 33.8223 28.7559L33.5958 28.5012C33.5053 28.4163 33.3693 28.2975 33.1882 28.1447C33.0221 27.9749 32.7956 27.7712 32.5088 27.5336ZM34.1167 23.612C34.4338 23.4252 34.7509 23.3743 35.0679 23.4592C35.4001 23.5441 35.6567 23.7053 35.8379 23.943C36.0191 24.1807 36.0795 24.4608 36.0191 24.7834C35.9738 25.1059 35.7322 25.42 35.2943 25.7255C34.8565 26.0141 34.4715 26.116 34.1393 26.0311C33.8072 25.9462 33.5732 25.768 33.4373 25.4964C33.3014 25.2247 33.2788 24.9107 33.3693 24.5542C33.46 24.1807 33.7091 23.8666 34.1167 23.612ZM39.0814 36.1152C39.1871 35.555 39.2626 35.0626 39.3079 34.6382C39.3683 34.1968 39.4136 33.8318 39.4438 33.5432C39.474 33.2037 39.4891 32.9151 39.4891 32.6774C39.474 32.3888 39.4589 32.0493 39.4438 31.6589C39.4438 31.2514 39.4287 30.8525 39.3985 30.462C39.3834 30.0545 39.3607 29.698 39.3305 29.3925C39.3004 29.0699 39.2626 28.8407 39.2173 28.7049C39.1569 28.5691 39.0739 28.4248 38.9682 28.272C38.7568 27.9834 38.4473 27.7033 38.0397 27.4317C38.3869 27.3468 38.6813 27.2789 38.9229 27.228C39.1796 27.16 39.391 27.1006 39.557 27.0497C39.7382 26.9818 39.8967 26.9224 40.0326 26.8715C40.1534 26.8205 40.2968 26.7696 40.4629 26.7187C40.5988 26.6847 40.7649 26.6423 40.9611 26.5914C41.1574 26.5404 41.3839 26.481 41.6406 26.4131L41.5726 28.7304C42.0557 28.0853 42.5464 27.6014 43.0447 27.2789C43.5429 26.9564 44.011 26.7272 44.4487 26.5914C44.947 26.4216 45.4377 26.3367 45.9208 26.3367C46.5247 26.3707 47.0834 26.481 47.5967 26.6677C48.1252 26.8545 48.5781 27.0751 48.9555 27.3298C49.3481 27.5675 49.6651 27.8222 49.9067 28.0938C50.1483 28.3654 50.2917 28.6031 50.337 28.8068C50.5182 29.4688 50.5634 30.08 50.4729 30.6402C50.3823 31.1835 50.2615 31.7183 50.1105 32.2445C49.9747 32.7538 49.8539 33.2631 49.7482 33.7724C49.6576 34.2817 49.6953 34.8334 49.8614 35.4276C49.9218 35.5804 49.9822 35.7332 50.0426 35.886C50.103 36.0218 50.1785 36.1576 50.2691 36.2934C50.3596 36.4292 50.4653 36.5396 50.5861 36.6244C50.42 36.6075 50.254 36.599 50.0878 36.599C49.9218 36.582 49.7708 36.565 49.6349 36.5481C49.4688 36.5311 49.3179 36.5141 49.182 36.4972C49.031 36.4801 48.8272 36.4717 48.5705 36.4717C48.1327 36.4717 47.4533 36.4972 46.5323 36.5481C46.6682 36.1916 46.7738 35.8944 46.8493 35.6568C46.9399 35.4021 47.0154 35.1984 47.0758 35.0456C47.1362 34.8589 47.1815 34.7146 47.2117 34.6127C47.3929 34.1204 47.4986 33.5602 47.5288 32.9321C47.5741 32.3039 47.5363 31.6673 47.4155 31.0222C47.3702 30.8015 47.2947 30.5384 47.189 30.2328C47.0834 29.9272 46.9399 29.6302 46.7588 29.3415C46.5927 29.0529 46.3889 28.8068 46.1473 28.6031C45.9208 28.3994 45.6566 28.2805 45.3547 28.2465C45.0527 28.2126 44.713 28.2975 44.3356 28.5012C43.9732 28.7049 43.5806 29.0784 43.1579 29.6217C42.8408 30.08 42.5917 30.6402 42.4106 31.3023C42.2445 31.8625 42.1312 32.5671 42.0708 33.4159C42.0105 34.2478 42.101 35.2239 42.3426 36.3443C42.1312 36.3104 41.935 36.2934 41.7538 36.2934C41.5726 36.2765 41.4216 36.2594 41.3008 36.2425C41.1498 36.2255 41.014 36.2085 40.8932 36.1916C40.7573 36.1916 40.6063 36.1831 40.4403 36.1661C40.2893 36.1661 40.1005 36.1661 39.8741 36.1661C39.6476 36.1491 39.3834 36.1321 39.0814 36.1152ZM58.1779 34.8164C58.6006 34.8164 58.9932 34.7655 59.3555 34.6637C59.6575 34.5788 59.9443 34.443 60.2161 34.2562C60.503 34.0525 60.6917 33.7554 60.7823 33.3649C61.0843 33.4329 61.3409 33.4923 61.5523 33.5432C61.7636 33.5772 61.9448 33.6111 62.0958 33.6451C62.2619 33.696 62.4053 33.7299 62.5261 33.747C62.6469 33.7809 62.7903 33.8148 62.9564 33.8488C63.1074 33.8828 63.2885 33.9252 63.5 33.9761C63.7264 34.0101 63.9906 34.061 64.2925 34.1289C64.0661 34.095 63.8321 34.1204 63.5905 34.2053C63.364 34.2902 63.1451 34.3836 62.9338 34.4854C62.6922 34.6043 62.4657 34.7486 62.2544 34.9183C62.1184 35.0202 61.9599 35.1729 61.7788 35.3767C61.6127 35.5804 61.3711 35.7757 61.0541 35.9624C60.737 36.1491 60.3142 36.3104 59.7858 36.4462C59.2725 36.565 58.6082 36.6075 57.7929 36.5735C56.8115 36.5396 55.9887 36.3443 55.3244 35.9878C54.66 35.6144 54.1241 35.1645 53.7164 34.6382C53.3087 34.095 53.0144 33.5093 52.8332 32.8812C52.652 32.253 52.5539 31.6673 52.5388 31.1241C52.5237 30.5808 52.6671 30.0121 52.9691 29.4179C53.2711 28.8238 53.6938 28.2805 54.2373 27.7882C54.7959 27.2959 55.4678 26.8969 56.2529 26.5914C57.038 26.2688 57.8985 26.1075 58.8347 26.1075C59.3782 26.1075 59.8764 26.1839 60.3294 26.3367C60.7974 26.4725 61.2201 26.6592 61.5976 26.8969C61.9901 27.1346 62.3299 27.4062 62.6167 27.7118C62.9036 28.0004 63.1451 28.2975 63.3414 28.6031C63.5377 28.9256 63.7038 29.2652 63.8396 29.6217C63.9604 29.9272 64.0586 30.2752 64.134 30.6657C64.2095 31.0561 64.2322 31.4551 64.202 31.8625C63.0546 31.8965 62.126 31.922 61.4164 31.939C60.7219 31.9559 60.1784 31.9644 59.7858 31.9644H58.7667H57.9967C57.7249 31.9644 57.3701 31.9729 56.9323 31.9899C56.4945 32.0068 55.9585 32.0323 55.3244 32.0663C55.3998 32.7453 55.5886 33.2716 55.8906 33.6451C56.2076 34.0016 56.5398 34.2732 56.887 34.46C57.2795 34.6637 57.7099 34.7825 58.1779 34.8164ZM56.1397 30.2328C56.6228 30.2668 57.0229 30.2923 57.34 30.3092C57.6721 30.3262 57.9439 30.3432 58.1552 30.3601C58.3817 30.3771 58.5629 30.3856 58.6987 30.3856H59.2649C59.6424 30.3856 60.3444 30.3601 61.3711 30.3092C61.3258 29.5622 61.1824 28.9935 60.9408 28.6031C60.7143 28.2126 60.4727 27.924 60.2161 27.7373C59.9142 27.5336 59.582 27.4147 59.2196 27.3807C58.2383 27.3978 57.506 27.6269 57.0229 28.0683C56.5548 28.5097 56.2604 29.2312 56.1397 30.2328ZM73.5829 19.7159C74.3981 19.7498 75.221 19.9196 76.0514 20.2252C76.8969 20.5138 77.6744 20.9891 78.384 21.6512C79.0936 22.2963 79.6976 23.1366 80.1958 24.1722C80.694 25.1908 81.0035 26.4386 81.1243 27.9155C81.23 29.1209 81.0941 30.3177 80.7167 31.506C80.3543 32.6774 79.8486 33.7554 79.1994 34.7401C78.5501 35.7247 77.8028 36.565 76.9573 37.261C76.1118 37.9401 75.2663 38.39 74.4208 38.6107C73.9075 38.7465 73.3413 38.7635 72.7223 38.6616C72.1184 38.5428 71.4993 38.3306 70.8653 38.025C70.2462 37.7024 69.6347 37.295 69.0308 36.8027C68.442 36.3104 67.906 35.7502 67.4229 35.122C66.9397 34.4769 66.5321 33.7809 66.2 33.0339C65.8829 32.287 65.6866 31.506 65.6111 30.6911C65.5356 30.0121 65.5281 29.2652 65.5885 28.4503C65.6639 27.6184 65.8074 26.7951 66.0188 25.9802C66.2453 25.1484 66.5548 24.3505 66.9473 23.5865C67.3549 22.8056 67.8683 22.1265 68.4873 21.5493C69.1063 20.9552 69.831 20.4968 70.6614 20.1742C71.5069 19.8347 72.4807 19.6819 73.5829 19.7159ZM69.529 30.0291C69.3177 31.8456 69.4687 33.3055 69.982 34.409C70.5104 35.5125 71.303 36.1831 72.36 36.4207C72.8732 36.5396 73.364 36.4207 73.832 36.0642C74.3151 35.6908 74.753 35.156 75.1455 34.46C75.5381 33.7639 75.8778 32.949 76.1646 32.0154C76.4515 31.0816 76.6629 30.1055 76.7987 29.0869C76.9346 28.0683 76.9422 27.1516 76.8214 26.3367C76.7157 25.5049 76.527 24.8003 76.2552 24.2231C75.9835 23.629 75.6513 23.1706 75.2588 22.848C74.8813 22.5255 74.4888 22.3472 74.0811 22.3133C73.3715 22.2623 72.7525 22.4746 72.224 22.9499C71.6956 23.4083 71.2502 24.0109 70.8879 24.7579C70.5255 25.5049 70.2311 26.3452 70.0046 27.2789C69.7933 28.2126 69.6347 29.1293 69.529 30.0291ZM82.9867 36.1152C83.0923 35.555 83.1677 35.0626 83.2128 34.6382C83.2733 34.1968 83.3184 33.8318 83.3487 33.5432C83.379 33.2037 83.3938 32.9151 83.3938 32.6774C83.379 32.3888 83.3635 32.0493 83.3487 31.6589C83.3487 31.2514 83.3339 30.8525 83.3036 30.462C83.2882 30.0545 83.2656 29.698 83.2353 29.3925C83.2051 29.0699 83.1677 28.8407 83.1226 28.7049C83.0621 28.5691 82.979 28.4248 82.8733 28.272C82.662 27.9834 82.3522 27.7033 81.9444 27.4317C82.2916 27.3468 82.586 27.2789 82.8276 27.228C83.0846 27.16 83.2959 27.1006 83.4621 27.0497C83.6431 26.9818 83.8016 26.9224 83.9375 26.8715C84.0586 26.8205 84.2016 26.7696 84.3678 26.7187C84.5037 26.6847 84.6699 26.6423 84.8664 26.5914C85.0622 26.5404 85.289 26.481 85.5454 26.4131L85.4777 28.7304C85.9609 28.0853 86.4511 27.6014 86.9497 27.2789C87.4476 26.9564 87.916 26.7272 88.354 26.5914C88.852 26.4216 89.3428 26.3367 89.826 26.3367C90.4296 26.3707 90.9881 26.481 91.5015 26.6677C92.0303 26.8545 92.4832 27.0751 92.8607 27.3298C93.253 27.5675 93.5699 27.8222 93.8115 28.0938C94.0531 28.3654 94.1967 28.6031 94.2418 28.8068C94.4228 29.4688 94.4686 30.08 94.3777 30.6402C94.2876 31.1835 94.1665 31.7183 94.0157 32.2445C93.8798 32.7538 93.7587 33.2631 93.653 33.7724C93.5629 34.2817 93.6002 34.8334 93.7664 35.4276C93.827 35.5804 93.8869 35.7332 93.9474 35.886C94.008 36.0218 94.0834 36.1576 94.1742 36.2934C94.2644 36.4292 94.37 36.5396 94.4911 36.6244C94.3249 36.6075 94.1587 36.599 93.9925 36.599C93.827 36.582 93.6756 36.565 93.5397 36.5481C93.3741 36.5311 93.2227 36.5141 93.0868 36.4972C92.9361 36.4801 92.7319 36.4717 92.4755 36.4717C92.0374 36.4717 91.3585 36.4972 90.4373 36.5481C90.5732 36.1916 90.6789 35.8944 90.7542 35.6568C90.8451 35.4021 90.9204 35.1984 90.981 35.0456C91.0409 34.8589 91.0866 34.7146 91.1169 34.6127C91.2979 34.1204 91.4036 33.5602 91.4338 32.9321C91.4789 32.3039 91.4416 31.6673 91.3205 31.0222C91.2754 30.8015 91.2 30.5384 91.0937 30.2328C90.9881 29.9272 90.845 29.6302 90.664 29.3415C90.4978 29.0529 90.2936 28.8068 90.0521 28.6031C89.826 28.3994 89.5618 28.2805 89.2597 28.2465C88.9576 28.2126 88.6181 28.2975 88.2406 28.5012C87.878 28.7049 87.4856 29.0784 87.0631 29.6217C86.7455 30.08 86.4968 30.6402 86.3158 31.3023C86.1496 31.8625 86.0362 32.5671 85.9757 33.4159C85.9151 34.2478 86.006 35.2239 86.2475 36.3443C86.0362 36.3104 85.8398 36.2934 85.6588 36.2934C85.4777 36.2765 85.3263 36.2594 85.2059 36.2425C85.0552 36.2255 84.9192 36.2085 84.7981 36.1916C84.6622 36.1916 84.5115 36.1831 84.3453 36.1661C84.1945 36.1661 84.0058 36.1661 83.779 36.1661C83.5523 36.1491 83.2882 36.1321 82.9867 36.1152ZM102.083 34.8164C102.505 34.8164 102.898 34.7655 103.26 34.6637C103.562 34.5788 103.849 34.443 104.121 34.2562C104.408 34.0525 104.596 33.7554 104.687 33.3649C104.989 33.4329 105.246 33.4923 105.457 33.5432C105.669 33.5772 105.85 33.6111 106.001 33.6451C106.167 33.696 106.311 33.7299 106.431 33.747C106.552 33.7809 106.695 33.8148 106.861 33.8488C107.012 33.8828 107.194 33.9252 107.405 33.9761C107.631 34.0101 107.896 34.061 108.197 34.1289C107.971 34.095 107.737 34.1204 107.495 34.2053C107.269 34.2902 107.05 34.3836 106.839 34.4854C106.597 34.6043 106.37 34.7486 106.159 34.9183C106.023 35.0202 105.865 35.1729 105.684 35.3767C105.518 35.5804 105.276 35.7757 104.959 35.9624C104.642 36.1491 104.22 36.3104 103.691 36.4462C103.177 36.565 102.513 36.6075 101.698 36.5735C100.716 36.5396 99.8939 36.3443 99.2291 35.9878C98.5649 35.6144 98.029 35.1645 97.6212 34.6382C97.2134 34.095 96.919 33.5093 96.738 32.8812C96.557 32.253 96.4591 31.6673 96.4436 31.1241C96.4288 30.5808 96.5718 30.0121 96.8739 29.4179C97.1761 28.8238 97.5986 28.2805 98.1423 27.7882C98.7008 27.2959 99.3727 26.8969 100.158 26.5914C100.943 26.2688 101.804 26.1075 102.74 26.1075C103.283 26.1075 103.781 26.1839 104.234 26.3367C104.703 26.4725 105.125 26.6592 105.503 26.8969C105.895 27.1346 106.235 27.4062 106.522 27.7118C106.808 28.0004 107.05 28.2975 107.247 28.6031C107.442 28.9256 107.609 29.2652 107.744 29.6217C107.866 29.9272 107.964 30.2752 108.039 30.6657C108.114 31.0561 108.137 31.4551 108.107 31.8625C106.959 31.8965 106.031 31.922 105.321 31.939C104.627 31.9559 104.084 31.9644 103.691 31.9644H102.672H101.902C101.63 31.9644 101.275 31.9729 100.838 31.9899C100.4 32.0068 99.8636 32.0323 99.2291 32.0663C99.3051 32.7453 99.4938 33.2716 99.7953 33.6451C100.112 34.0016 100.445 34.2732 100.792 34.46C101.185 34.6637 101.615 34.7825 102.083 34.8164ZM100.045 30.2328C100.528 30.2668 100.928 30.2923 101.245 30.3092C101.577 30.3262 101.849 30.3432 102.06 30.3601C102.287 30.3771 102.468 30.3856 102.604 30.3856H103.17C103.548 30.3856 104.249 30.3601 105.276 30.3092C105.231 29.5622 105.087 28.9935 104.846 28.6031C104.62 28.2126 104.378 27.924 104.121 27.7373C103.819 27.5336 103.487 27.4147 103.124 27.3807C102.143 27.3978 101.411 27.6269 100.928 28.0683C100.46 28.5097 100.166 29.2312 100.045 30.2328ZM109.924 20.9636C110.21 21.2013 110.498 21.3796 110.784 21.4984C111.087 21.6003 111.358 21.6682 111.6 21.7021C111.871 21.7531 112.143 21.7615 112.415 21.7276C112.672 21.6936 112.936 21.5918 113.208 21.422C113.479 21.2522 113.797 21.074 114.159 20.8873C114.521 20.7005 114.944 20.5392 115.427 20.4034C115.925 20.2506 116.521 20.1742 117.216 20.1742C117.518 20.1742 117.835 20.2421 118.167 20.378C118.515 20.5138 118.847 20.692 119.164 20.9127C119.481 21.1164 119.767 21.3456 120.025 21.6003C120.296 21.8549 120.5 22.1096 120.636 22.3642C120.787 22.6189 120.892 23.0348 120.953 23.612C121.013 24.1722 121.036 24.7834 121.021 25.4454C121.006 26.1075 120.953 26.7612 120.862 27.4062C120.787 28.0513 120.673 28.5776 120.522 28.9851C120.341 29.3415 119.994 29.7999 119.481 30.3601C119.043 30.8355 118.386 31.4466 117.51 32.1936C116.635 32.9406 115.457 33.8318 113.978 34.8674C114.853 34.8504 115.585 34.825 116.174 34.791C116.778 34.7401 117.269 34.6892 117.646 34.6382C118.084 34.5703 118.431 34.5024 118.688 34.4345C118.915 34.3326 119.156 34.1884 119.413 34.0016C119.624 33.8318 119.851 33.6111 120.092 33.3395C120.349 33.0679 120.598 32.7114 120.839 32.27C120.885 33.1867 120.93 33.9082 120.975 34.4345C121.006 34.7401 121.028 35.0032 121.044 35.2239C121.058 35.4276 121.074 35.6653 121.089 35.9369C121.104 36.1745 121.111 36.4462 121.111 36.7518C121.127 37.0574 121.149 37.3799 121.18 37.7195C120.425 37.4988 119.737 37.329 119.118 37.2101C118.499 37.0743 117.971 36.9809 117.533 36.93C117.02 36.8622 116.559 36.8282 116.152 36.8282C115.729 36.8451 115.261 36.8876 114.747 36.9555C114.295 37.0234 113.751 37.1252 113.117 37.261C112.498 37.3799 111.796 37.5582 111.01 37.7958C110.951 37.6091 110.898 37.4223 110.852 37.2356C110.807 37.0319 110.769 36.8367 110.739 36.6499C110.694 36.4462 110.656 36.2425 110.626 36.0387C110.596 35.8351 110.565 35.6398 110.535 35.4531C110.505 35.2833 110.482 35.1051 110.467 34.9183C110.452 34.7316 110.437 34.5534 110.422 34.3836C111.63 33.5178 112.611 32.7369 113.366 32.0408C114.121 31.3278 114.717 30.7251 115.155 30.2328C115.654 29.6556 116.031 29.1293 116.288 28.654C116.544 28.0768 116.755 27.4401 116.922 26.7441C117.088 26.0481 117.141 25.403 117.08 24.8088C117.035 24.2146 116.854 23.7308 116.537 23.3573C116.219 22.9669 115.714 22.7971 115.019 22.848C114.566 22.882 114.136 23.0602 113.728 23.3828C113.336 23.7053 112.973 24.0958 112.642 24.5542C112.309 25.0125 112.015 25.5049 111.758 26.0311C111.501 26.5404 111.282 27.0242 111.101 27.4826C110.935 27.941 110.799 28.323 110.694 28.6285C110.603 28.9341 110.558 29.0954 110.558 29.1123C110.543 29.1463 110.52 29.019 110.49 28.7304C110.475 28.4418 110.452 28.0853 110.422 27.6608C110.407 27.2195 110.384 26.7612 110.354 26.2858C110.324 25.8104 110.294 25.4115 110.263 25.0889C110.248 24.8343 110.226 24.5032 110.196 24.0958C110.151 23.4337 110.06 22.3897 109.924 20.9636ZM123.336 23.1281C123.864 22.9414 124.295 22.7886 124.627 22.6698C124.959 22.534 125.231 22.4236 125.442 22.3387C125.684 22.2369 125.865 22.1435 125.986 22.0586L126.529 21.7531C126.74 21.6342 127.012 21.4814 127.344 21.2947C127.677 21.091 128.107 20.8363 128.635 20.5307C128.514 21.1758 128.424 21.787 128.363 22.3642C128.318 22.9244 128.28 23.4252 128.25 23.8666C128.205 24.3759 128.182 24.8428 128.182 25.2672C128.167 25.6237 128.144 26.099 128.114 26.6932C128.099 27.2874 128.077 27.9325 128.047 28.6285C128.016 29.3246 127.986 30.0376 127.956 30.7676C127.925 31.4975 127.903 32.1851 127.888 32.8302C127.888 33.4583 127.895 34.0016 127.911 34.46C127.941 34.9183 127.994 35.2324 128.069 35.4021C128.144 35.6059 128.242 35.8011 128.363 35.9878C128.469 36.1576 128.59 36.3528 128.725 36.5735C128.877 36.7773 129.058 36.9809 129.269 37.1847C128.922 37.2696 128.597 37.3459 128.295 37.4139C127.994 37.4648 127.73 37.5072 127.503 37.5412C127.231 37.5921 126.989 37.6346 126.778 37.6685C126.551 37.6855 126.242 37.7279 125.85 37.7958C125.517 37.8467 125.095 37.9147 124.581 37.9996C124.068 38.0674 123.434 38.1439 122.679 38.2287C123.071 37.9571 123.381 37.694 123.607 37.4393C123.849 37.1847 124.03 36.964 124.151 36.7773C124.287 36.5566 124.37 36.3443 124.4 36.1406C124.415 36.0048 124.438 35.6398 124.468 35.0456C124.513 34.4345 124.551 33.7215 124.581 32.9066C124.627 32.0748 124.665 31.192 124.695 30.2583C124.74 29.3076 124.77 28.4248 124.785 27.6099C124.8 26.7951 124.808 26.099 124.808 25.5218C124.808 24.9446 124.785 24.5966 124.74 24.4778C124.679 24.3589 124.589 24.2231 124.468 24.0703C124.362 23.9345 124.219 23.7902 124.038 23.6374C123.872 23.4847 123.638 23.3149 123.336 23.1281Z" fill="#394BA7"/>
</g>
<defs>
<clipPath id="clip0_15389_4589">
<rect width="112.087" height="20.2812" fill="white" transform="translate(17.4561 19.3594)"/>
</clipPath>
</defs>
</svg>
