<svg width="147" height="59" viewBox="0 0 147 59" fill="none" xmlns="http://www.w3.org/2000/svg">
<g clip-path="url(#clip0_15389_4577)">
<path d="M25.221 47.7117C28.5459 47.7117 31.6849 46.0694 34.0598 44.4271C35.4228 43.4623 36.7032 42.3742 37.9216 41.1221L35.2576 38.3712C33.1099 40.4446 28.8557 43.3596 25.5514 43.3596C24.4982 43.3596 23.7961 42.9901 22.9494 41.4915C27.7612 40.1777 31.3132 36.5442 31.3132 33.1569C31.3132 30.0572 28.959 28.0248 25.8819 28.0248C20.2234 28.0248 17.4561 34.5118 17.4561 39.1513C17.4561 43.6881 20.0375 47.7117 25.221 47.7117ZM22.4744 38.0633C22.4744 36.2362 22.8048 31.9458 26.3362 31.9458C26.997 31.9458 27.5133 32.8285 27.5133 34.0602C27.5133 35.7846 24.4363 38.0633 22.4744 38.0633ZM41.3154 30.9604C45.1566 26.3209 49.4934 20.2445 49.4934 15.0508C49.4934 11.3351 48.8532 8.29688 44.661 8.29688C39.0644 8.29688 35.7808 23.0569 34.4591 31.1041C33.7982 35.1277 33.4472 38.4327 33.22 40.8346C33.0961 42.2306 33.0135 43.4828 32.9722 44.5914C33.9635 45.1867 34.996 45.6999 36.0906 46.1516C37.9698 46.9521 40.3655 47.7117 42.699 47.7117H43.2154C43.7316 47.5064 44.2273 47.3011 44.6816 47.0753C45.487 46.6852 46.375 46.2131 46.85 45.741C50.7325 44.8582 53.603 43.6471 56.6388 40.9168L55.0486 37.5295C52.8596 39.7056 50.8358 40.6294 48.8326 41.7995C50.464 39.295 50.8151 37.16 50.8151 34.3887C50.8151 31.0631 48.8945 28.0043 45.6729 28.0043C44.4131 28.0043 43.1947 29.277 41.6458 31.1862L41.3154 30.9604ZM43.5045 32.6848C45.6729 32.6848 46.1892 33.896 46.1892 35.2508C46.1892 38.3918 44.9914 43.7702 42.1415 43.7702C41.336 43.7702 40.4274 43.606 39.622 43.4418C39.1677 43.3391 38.7133 43.2364 38.259 43.0928C38.3003 42.6206 38.3416 42.1074 38.4035 41.5532C38.5068 40.5883 38.672 39.336 38.9199 37.858C39.5187 34.2039 41.5839 32.6848 43.5045 32.6848ZM45.5284 13.8806C45.1153 19.7107 41.1708 25.0277 38.9199 29.3386C39.5807 25.7256 42.2034 12.2384 44.475 12.2384C45.4044 12.2384 45.5284 13.6548 45.5284 13.8806ZM55.0555 41.7173C55.2208 44.3245 55.262 47.9375 58.463 47.9375C60.3836 47.9375 62.965 43.996 64.5758 40.691C64.6378 42.7438 66.4139 44.7351 69.367 44.7351C71.1224 44.7351 73.1462 43.996 74.9636 42.8464V38.0222C74.3647 38.4123 73.7865 38.7818 73.2288 39.0897C72.2582 39.644 71.0811 40.1367 70.255 40.1367C68.0247 40.1367 67.4671 38.8023 67.4671 37.4885C67.4671 36.8521 67.5704 36.2568 67.7149 35.7846C67.7769 35.5177 67.8594 35.2714 67.9627 35.025C69.1811 32.3358 70.0485 31.2273 70.0485 29.7287C70.0485 28.7228 68.9953 28.0043 67.4051 28.0043C66.2073 28.0043 65.1747 28.7023 65.0095 29.4618L59.5782 42.3332L59.289 42.3537L60.0945 29.3592C60.0739 28.6407 59.5369 28.0043 58.6076 28.0043C58.463 28.0043 58.3597 28.0248 58.2152 28.0454L55.737 28.4354C54.849 28.579 54.6838 30.2008 54.6838 33.0133C54.6838 35.1893 54.849 36.9548 55.0142 41.0604L55.0555 41.7173ZM85.4407 43.7907C85.4407 41.6557 84.2429 40.4651 81.9507 40.4651C79.2866 40.4651 78.1714 42.3948 78.1714 44.386C78.1714 46.7263 79.5344 47.7117 81.5583 47.7117C85.3788 47.7117 85.4407 44.1397 85.4407 43.7907ZM101.742 39.1718C99.9243 40.6499 96.8266 43.7702 94.8647 43.7702C94.018 43.7702 93.8115 42.9901 93.8115 41.7584C93.8115 37.9606 96.5787 31.0015 96.5787 29.1744C96.5787 28.4559 96.2483 28.0043 95.0919 28.0043C93.8528 28.0043 91.7257 28.579 91.3333 29.9955C90.342 34.1012 88.5247 40.1161 88.5247 43.5855C88.5247 46.0694 89.4953 47.7117 92.3659 47.7117C95.5462 47.7117 99.7591 45.1456 101.742 43.3391V39.1718ZM92.5105 22.2358C92.5105 24.1244 93.6462 25.3561 96.0625 25.3561C98.8711 25.3561 100.069 23.529 100.069 21.6814C100.069 19.6286 98.4787 18.8075 96.5581 18.8075C93.5017 18.8075 92.5105 20.9835 92.5105 22.2358ZM109.824 32.1921C109.906 32.11 109.885 38.0017 110.133 39.1102C109.824 39.9109 109.472 40.6088 109.08 41.2452C108.419 42.3332 107.469 43.3802 106.478 43.3802C104.557 43.3802 104.165 42.169 104.165 41.081C104.165 38.3302 106.168 33.9576 109.824 32.1921ZM123.412 38.946C122.586 39.644 121.801 40.2598 121.037 40.8141C119.695 41.7584 118.166 42.6822 117.134 42.6822C116.039 42.6822 115.689 41.2452 115.689 39.685C115.689 38.4533 116.039 36.8726 116.308 36.1335C119.179 29.236 122.586 23.5701 123.309 15.8103C123.35 15.2971 123.37 14.8044 123.37 14.3323C123.37 11.1914 122.42 8.29688 119.818 8.29688C114.573 8.29688 109.988 18.6022 109.741 29.1334C103.463 29.7081 99.2084 35.7025 99.2084 40.9372C99.2084 44.3656 100.902 47.7117 104.454 47.7117C106.973 47.7117 109.555 46.0283 111.599 44.0576C112.921 47.2395 115.44 47.6912 116.205 47.6912C117.568 47.6912 119.529 46.6852 121.14 45.6999C122.09 45.1045 123.061 44.4476 124.031 43.6881L123.412 38.946ZM119.529 17.3089C119.261 20.2035 118.063 23.8986 116.948 26.9368C116.287 28.7023 115.564 30.4677 114.779 32.2537V32.0484C114.779 31.2273 114.779 28.887 115.007 26.1773C115.172 24.186 116.246 13.0595 118.89 13.0595C119.385 13.0595 119.654 13.5522 119.654 15.0302C119.654 15.5845 119.612 16.3441 119.529 17.3089Z" fill="black"/>
</g>
<defs>
<clipPath id="clip0_15389_4577">
<rect width="112.087" height="42.4062" fill="white" transform="translate(17.4561 8.29688)"/>
</clipPath>
</defs>
</svg>
