<svg width="147" height="59" viewBox="0 0 147 59" fill="none" xmlns="http://www.w3.org/2000/svg">
<g clip-path="url(#clip0_15389_4581)">
<path d="M23.4302 14.0715C23.4302 14.9344 23.4134 15.9466 23.3798 17.1082C23.3461 18.2365 23.3125 19.0994 23.2789 19.6968C23.178 21.3893 23.1276 23.0819 23.1276 24.7745C23.1276 26.0356 23.178 27.3465 23.2789 28.7072C24.3213 27.2137 25.4478 26.1186 26.6583 25.4216C27.8689 24.7247 29.3316 24.3762 31.0466 24.3762C32.2907 24.3762 33.4508 24.9238 34.5269 26.019C35.6029 27.1142 36.2923 28.3919 36.5949 29.8522C36.6958 31.1465 36.7462 32.7229 36.7462 34.5814C36.7462 35.7761 36.8135 37.3359 36.948 39.2608C37.0152 39.9909 37.2002 40.6713 37.5028 41.3018C37.8391 41.9324 38.3098 42.2477 38.9151 42.2477C39.2177 42.2477 39.4531 42.2311 39.6213 42.1979C39.823 42.1647 40.008 42.1481 40.1761 42.1481C40.6469 42.1481 40.9663 42.2643 41.1344 42.4966C41.3362 42.7289 41.4371 43.0608 41.4371 43.4922C41.4371 44.2887 41.0336 44.8861 40.2265 45.2843C39.4195 45.6826 38.6797 45.8817 38.0072 45.8817C35.5861 45.8817 33.9216 44.8861 33.0137 42.8948C32.5093 41.7665 32.1899 40.3062 32.0553 38.5141C31.9208 36.6888 31.8536 34.5648 31.8536 32.1421C31.8536 29.7526 31.0297 28.5578 29.3821 28.5578C28.4742 28.5578 27.5494 29.0391 26.6079 30.0015C25.7 30.9307 24.9434 32.1753 24.3381 33.7351C23.7329 35.2617 23.4302 36.8547 23.4302 38.5141L23.4807 43.6913C23.4807 44.4215 23.1948 44.9691 22.6232 45.3341C22.0515 45.666 21.5135 45.8319 21.0091 45.8319C20.2693 45.8319 19.5968 45.6162 18.9916 45.1848C18.3863 44.7202 18.0836 44.2057 18.0836 43.6416C18.319 41.1525 18.4367 36.9875 18.4367 31.1465C18.4367 30.0845 18.3527 26.1517 18.1845 19.3483L18.0332 14.7684C18.0332 14.0383 18.3695 13.4077 19.042 12.8767C19.7145 12.3126 20.4711 12.0305 21.3118 12.0305C22.0515 12.0305 22.5896 12.1964 22.9258 12.5283C23.2621 12.8602 23.4302 13.3746 23.4302 14.0715ZM47.7407 13.6732C48.9176 13.7728 49.9432 14.0881 50.8175 14.6191C51.6918 15.1169 52.129 15.8802 52.129 16.909C52.129 17.6723 51.7591 18.2863 51.0193 18.7509C50.3131 19.1824 49.4557 19.3981 48.4469 19.3981C47.4717 19.3981 46.7992 19.1492 46.4293 18.6514C46.0594 18.1536 45.8745 17.6392 45.8745 17.1082C45.8745 16.1125 45.9753 15.2828 46.1771 14.6191C46.4125 13.9553 46.9337 13.6401 47.7407 13.6732ZM51.7759 35.7263V37.17C51.7759 38.4643 51.8095 39.6923 51.8768 40.8538C51.9776 41.9822 52.0953 43.1272 52.2298 44.2887C52.1962 44.6206 51.944 44.9691 51.4732 45.3341C51.0025 45.666 50.5821 45.8319 50.2123 45.8319C49.5734 45.8319 48.9176 45.7158 48.2451 45.4835C47.6062 45.218 47.2195 44.9027 47.085 44.5376C46.8833 43.4756 46.7824 42.5298 46.7824 41.7001C46.7824 38.9787 46.6983 35.9255 46.5302 32.5403C46.3957 29.5535 46.3284 27.4627 46.3284 26.2679C46.3284 25.6705 46.6311 25.1561 47.2363 24.7247C47.8416 24.2932 48.4805 24.0775 49.153 24.0775C50.1282 24.0775 50.8007 24.2932 51.1706 24.7247C51.5741 25.1561 51.7759 25.8365 51.7759 26.7657V35.7263ZM69.1647 16.3117C68.1559 16.3117 67.5338 17.1413 67.2985 18.8007C67.0631 21.0575 66.9454 22.7666 66.9454 23.9282C67.6179 23.9946 68.3241 24.0278 69.0638 24.0278C69.5346 24.0278 70.1399 23.9946 70.8796 23.9282L72.1911 23.8784C72.8636 23.8784 73.368 23.9946 73.7043 24.2269C74.0405 24.4592 74.2086 24.8408 74.2086 25.3718C74.2086 26.102 73.9564 26.7325 73.4521 27.2635C72.9813 27.7613 72.4265 28.0102 71.7876 28.0102C69.3665 28.0102 67.7356 28.1264 66.8949 28.3587C66.8949 30.3832 66.9958 33.2539 67.1976 36.9709L67.2985 39.4102L67.5002 43.2931C67.5675 44.2555 67.4666 44.9359 67.1976 45.3341C66.9622 45.6992 66.441 45.8817 65.634 45.8817C64.1544 45.8817 63.196 45.0023 62.7589 43.2433C62.4899 41.949 62.2713 40.1403 62.1032 37.8172C61.9351 35.494 61.851 33.4198 61.851 31.5945C61.851 30.6321 61.9014 29.5369 62.0023 28.3089C61.9351 28.2757 61.7501 28.2592 61.4475 28.2592C61.1448 28.2592 60.9263 28.2757 60.7918 28.3089C59.783 28.3753 59.0432 28.4085 58.5724 28.4085C58.2698 28.4085 57.9672 28.2094 57.6645 27.8111C57.3619 27.3797 57.2106 26.8653 57.2106 26.2679C57.2106 25.936 57.3283 25.6373 57.5636 25.3718C57.799 25.0732 58.0849 24.8574 58.4211 24.7247C58.9255 24.4592 59.6485 24.3264 60.59 24.3264L62.1032 24.3762C62.1032 19.6636 62.6412 16.3946 63.7173 14.5693C64.726 12.8436 66.3905 11.9807 68.7108 11.9807C70.0558 11.9807 71.2832 12.3126 72.3928 12.9763C72.8636 13.275 73.2167 13.6401 73.4521 14.0715C73.7211 14.5029 73.8556 14.9178 73.8556 15.316C73.8556 15.8138 73.6538 16.3282 73.2503 16.8592C72.8804 17.3902 72.3088 17.6557 71.5354 17.6557C71.2327 17.6557 70.846 17.4234 70.3753 16.9588C70.2071 16.7929 70.0222 16.6435 69.8204 16.5108C69.6187 16.378 69.4001 16.3117 69.1647 16.3117ZM84.1372 37.9167C84.1372 39.1778 84.3222 40.1569 84.692 40.8538C85.0956 41.5176 85.6 41.8494 86.2052 41.8494C86.5415 41.8494 86.8609 41.8328 87.1636 41.7997C87.4662 41.7333 87.7688 41.7001 88.0715 41.7001C88.4077 41.7001 88.6936 41.866 88.9289 42.1979C89.198 42.5298 89.3325 42.8948 89.3325 43.2931C89.3325 44.0896 88.9458 44.7202 88.1724 45.1848C87.4326 45.6162 86.4238 45.8319 85.146 45.8319C84.2381 45.8319 83.3134 45.5664 82.3718 45.0354C81.4639 44.4713 80.7073 43.6084 80.1021 42.4468C79.4968 41.2521 79.1942 39.7752 79.1942 38.0163C79.1942 34.2329 79.2614 31.0303 79.3959 28.4085C79.564 25.2889 79.6481 21.3562 79.6481 16.6103C79.6481 15.1169 79.7322 14.0715 79.9003 13.4741C80.1021 13.0095 80.4215 12.661 80.8587 12.4287C81.3294 12.1632 81.817 12.0305 82.3214 12.0305C82.8258 12.0305 83.2629 12.1134 83.6328 12.2794C84.0363 12.4453 84.3053 12.7108 84.4398 13.0759C84.5743 13.4741 84.6584 13.8724 84.692 14.2706C84.7593 14.6357 84.7929 15.1667 84.7929 15.8636C84.7929 17.2243 84.7425 18.5352 84.6416 19.7963C84.5744 21.323 84.5407 22.4347 84.5407 23.1317C84.2717 28.9727 84.1372 33.901 84.1372 37.9167ZM96.0457 13.6732C97.2226 13.7728 98.2482 14.0881 99.1225 14.6191C99.9967 15.1169 100.434 15.8802 100.434 16.909C100.434 17.6723 100.064 18.2863 99.3242 18.7509C98.6181 19.1824 97.7606 19.3981 96.7518 19.3981C95.7766 19.3981 95.1041 19.1492 94.7342 18.6514C94.3643 18.1536 94.1794 17.6392 94.1794 17.1082C94.1794 16.1125 94.2803 15.2828 94.482 14.6191C94.7174 13.9553 95.2386 13.6401 96.0457 13.6732ZM100.081 35.7263V37.17C100.081 38.4643 100.114 39.6923 100.182 40.8538C100.283 41.9822 100.4 43.1272 100.535 44.2887C100.535 44.687 100.299 45.052 99.8286 45.3839C99.3578 45.6826 98.9207 45.8319 98.5172 45.8319C97.8783 45.8319 97.2226 45.7158 96.5501 45.4835C95.9112 45.218 95.5245 44.9027 95.39 44.5376C95.1882 43.4756 95.0873 42.5298 95.0873 41.7001C95.0873 38.9787 95.0033 35.9255 94.8351 32.5403C94.7006 29.5535 94.6334 27.4627 94.6334 26.2679C94.6334 25.6705 94.936 25.1561 95.5413 24.7247C96.1465 24.2932 96.7854 24.0775 97.458 24.0775C98.4331 24.0775 99.1057 24.2932 99.4755 24.7247C99.8791 25.1561 100.081 25.8365 100.081 26.7657V35.7263ZM124.128 23.6793C124.8 23.6793 125.321 23.8452 125.691 24.1771C126.095 24.4758 126.297 24.8574 126.297 25.3221C126.297 25.6539 126.229 26.0024 126.095 26.3675C125.994 26.6993 125.876 27.0478 125.742 27.4129C124.968 29.205 123.337 31.7107 120.849 34.9298C123.405 38.1822 125.473 40.273 127.053 41.2023C127.188 41.2687 127.44 41.3848 127.81 41.5508C128.18 41.7167 128.465 41.9158 128.667 42.1481C128.903 42.3804 129.02 42.6459 129.02 42.9446C129.02 43.6748 128.734 44.2721 128.163 44.7368C127.625 45.1682 126.969 45.3839 126.196 45.3839C124.884 45.3839 123.455 44.6704 121.908 43.2433C120.361 41.7831 119.05 40.2564 117.974 38.6634C117.201 39.825 116.31 40.9866 115.301 42.1481C114.326 43.2765 113.418 44.2389 112.577 45.0354C112.241 45.4005 111.837 45.6826 111.366 45.8817C110.929 46.0808 110.492 46.1804 110.055 46.1804C109.45 46.1804 108.912 46.0477 108.441 45.7822C107.97 45.5167 107.735 45.052 107.735 44.3883C107.735 44.2223 107.853 43.9568 108.088 43.5918C108.323 43.1935 108.458 42.9612 108.491 42.8948C108.895 42.1979 109.433 41.4844 110.105 40.7543C110.778 39.9909 111.198 39.5097 111.366 39.3106C111.77 38.8128 112.207 38.3316 112.678 37.8669C112.947 37.5683 113.35 37.1036 113.888 36.4731C114.426 35.8425 114.796 35.3447 114.998 34.9796L113.233 32.5901C112.392 31.6277 111.669 30.8644 111.064 30.3002C110.459 29.7028 109.971 29.4041 109.601 29.4041C109.063 29.4041 108.559 29.5535 108.088 29.8522C107.684 30.1177 107.281 30.2504 106.877 30.2504C106.44 30.2504 106.104 30.1508 105.869 29.9517C105.633 29.7194 105.516 29.4705 105.516 29.205C105.516 28.0766 105.969 27.1142 106.877 26.3177C107.785 25.488 108.929 25.0732 110.307 25.0732C111.619 25.0732 112.779 25.5212 113.788 26.4172C114.83 27.2801 115.856 28.4417 116.864 29.9019C116.999 30.0347 117.15 30.2504 117.318 30.5491C117.486 30.8478 117.655 31.0967 117.823 31.2958C118.193 30.7648 118.865 29.736 119.84 28.2094C120.883 26.3841 121.505 25.3387 121.707 25.0732C122.413 24.1439 123.22 23.6793 124.128 23.6793Z" fill="#D00707"/>
</g>
<defs>
<clipPath id="clip0_15389_4581">
<rect width="112.087" height="35.9531" fill="white" transform="translate(17.4561 11.0625)"/>
</clipPath>
</defs>
</svg>
